<?xml version="1.0"?>
<svg xmlns="http://www.w3.org/2000/svg" height="512px" viewBox="0 -31 512 512" width="512px"><g><path d="m428.648438 447.449219-45.832032-30.730469c-69.859375 12.859375-142.238281-13.683594-178.15625-63.207031-14.851562-20.875-22.660156-44.53125-22.660156-68.511719 0-74.441406 74.019531-135 165-135 35.113281 0 68.773438 8.921875 97.339844 25.78125 42.390625 25.371094 67.660156 66.195312 67.660156 109.21875 0 40.226562-22.265625 78.632812-60 104.210938v45.789062c0 12.085938-13.511719 19.085938-23.351562 12.449219zm0 0" data-original="#000000" class="active-path" data-old_color="#000000" fill="#FFFFFF"/><path d="m152 285c0-90.980469 87.480469-165 195-165 35.71875 0 70 8.507812 100.441406 23.871094-20.964844-82-111.832031-143.871094-220.441406-143.871094-124.070312 0-227 80.742188-227 180 0 46.054688 23.238281 89.324219 62 122.5625v72.4375c0 12.054688 13.445312 19.0625 23.320312 12.480469l59.648438-39.769531c8.085938 2.507812 16.441406 4.148437 24.765625 5.886718-11.550781-21.585937-17.734375-44.882812-17.734375-68.597656zm0 0" data-original="#000000" class="active-path" data-old_color="#000000" fill="#FFFFFF"/></g> </svg>
